<mxfile host="app.diagrams.net" agent="Mozilla/5.0 (X11; Linux x86_64) AppleWebKit/537.36 (KHTML, like Gecko) Chrome/128.0.0.0 Safari/537.36" version="24.7.6">
  <diagram name="Seite-1" id="QD9Hn8IISMz7zZcDX5OA">
    <mxGraphModel dx="534" dy="312" grid="1" gridSize="10" guides="1" tooltips="1" connect="1" arrows="1" fold="1" page="1" pageScale="1" pageWidth="827" pageHeight="1169" math="0" shadow="0">
      <root>
        <mxCell id="0" />
        <mxCell id="1" parent="0" />
        <mxCell id="h-RIfIJi3bfVFDU83Ssf-3" value="" style="rounded=0;whiteSpace=wrap;html=1;" vertex="1" parent="1">
          <mxGeometry x="200" y="200" width="80" height="80" as="geometry" />
        </mxCell>
        <mxCell id="h-RIfIJi3bfVFDU83Ssf-4" value="" style="rounded=0;whiteSpace=wrap;html=1;fillColor=#d5e8d4;strokeColor=#82b366;" vertex="1" parent="1">
          <mxGeometry x="280" y="200" width="80" height="80" as="geometry" />
        </mxCell>
        <mxCell id="h-RIfIJi3bfVFDU83Ssf-1" value="" style="rounded=0;whiteSpace=wrap;html=1;fillColor=#f8cecc;strokeColor=#b85450;" vertex="1" parent="1">
          <mxGeometry x="200" y="120" width="80" height="80" as="geometry" />
        </mxCell>
        <mxCell id="h-RIfIJi3bfVFDU83Ssf-2" value="" style="rounded=0;whiteSpace=wrap;html=1;fillColor=#dae8fc;strokeColor=#6c8ebf;" vertex="1" parent="1">
          <mxGeometry x="280" y="120" width="80" height="80" as="geometry" />
        </mxCell>
        <mxCell id="h-RIfIJi3bfVFDU83Ssf-6" value="&lt;font style=&quot;font-size: 16px;&quot;&gt;Source Code&lt;/font&gt;" style="text;html=1;align=center;verticalAlign=middle;whiteSpace=wrap;rounded=0;" vertex="1" parent="1">
          <mxGeometry x="200" y="300" width="160" height="20" as="geometry" />
        </mxCell>
        <mxCell id="h-RIfIJi3bfVFDU83Ssf-7" value="&lt;font style=&quot;font-size: 11px;&quot;&gt;public (open)&lt;/font&gt;" style="text;html=1;align=center;verticalAlign=middle;whiteSpace=wrap;rounded=0;" vertex="1" parent="1">
          <mxGeometry x="280" y="280" width="80" height="20" as="geometry" />
        </mxCell>
        <mxCell id="h-RIfIJi3bfVFDU83Ssf-8" value="&lt;font style=&quot;font-size: 11px;&quot;&gt;private (closed)&lt;/font&gt;" style="text;html=1;align=center;verticalAlign=middle;whiteSpace=wrap;rounded=0;" vertex="1" parent="1">
          <mxGeometry x="200" y="280" width="80" height="20" as="geometry" />
        </mxCell>
        <mxCell id="h-RIfIJi3bfVFDU83Ssf-9" value="&lt;font style=&quot;font-size: 16px;&quot;&gt;License is&lt;/font&gt;" style="text;html=1;align=center;verticalAlign=middle;whiteSpace=wrap;rounded=0;rotation=-90;" vertex="1" parent="1">
          <mxGeometry x="90" y="180" width="160" height="20" as="geometry" />
        </mxCell>
        <mxCell id="h-RIfIJi3bfVFDU83Ssf-10" value="permissive" style="text;html=1;align=center;verticalAlign=middle;whiteSpace=wrap;rounded=0;rotation=-90;" vertex="1" parent="1">
          <mxGeometry x="150" y="230" width="80" height="20" as="geometry" />
        </mxCell>
        <mxCell id="h-RIfIJi3bfVFDU83Ssf-11" value="restrictive" style="text;html=1;align=center;verticalAlign=middle;whiteSpace=wrap;rounded=0;rotation=-90;" vertex="1" parent="1">
          <mxGeometry x="150" y="150" width="80" height="20" as="geometry" />
        </mxCell>
        <mxCell id="h-RIfIJi3bfVFDU83Ssf-12" value="&lt;b&gt;Free Software&lt;/b&gt;" style="text;html=1;align=center;verticalAlign=middle;whiteSpace=wrap;rounded=0;" vertex="1" parent="1">
          <mxGeometry x="280" y="225" width="80" height="30" as="geometry" />
        </mxCell>
        <mxCell id="h-RIfIJi3bfVFDU83Ssf-13" value="Linux, VLC" style="text;html=1;align=center;verticalAlign=middle;whiteSpace=wrap;rounded=0;" vertex="1" parent="1">
          <mxGeometry x="280" y="200" width="80" height="30" as="geometry" />
        </mxCell>
        <mxCell id="h-RIfIJi3bfVFDU83Ssf-14" value="Libre Office, .." style="text;html=1;align=center;verticalAlign=middle;whiteSpace=wrap;rounded=0;" vertex="1" parent="1">
          <mxGeometry x="280" y="250" width="80" height="20" as="geometry" />
        </mxCell>
        <mxCell id="h-RIfIJi3bfVFDU83Ssf-15" value="&lt;b&gt;Proprietary Software&lt;/b&gt;" style="text;html=1;align=center;verticalAlign=middle;whiteSpace=wrap;rounded=0;" vertex="1" parent="1">
          <mxGeometry x="200" y="145" width="80" height="30" as="geometry" />
        </mxCell>
        <mxCell id="h-RIfIJi3bfVFDU83Ssf-16" value="Windows" style="text;html=1;align=center;verticalAlign=middle;whiteSpace=wrap;rounded=0;" vertex="1" parent="1">
          <mxGeometry x="200" y="175" width="80" height="25" as="geometry" />
        </mxCell>
        <mxCell id="h-RIfIJi3bfVFDU83Ssf-18" value="2-clause BSD, MIT" style="text;strokeColor=none;align=center;fillColor=none;html=1;verticalAlign=middle;whiteSpace=wrap;rounded=0;" vertex="1" parent="1">
          <mxGeometry x="360" y="225" width="60" height="30" as="geometry" />
        </mxCell>
        <mxCell id="h-RIfIJi3bfVFDU83Ssf-20" value="Proprietary licenses" style="text;strokeColor=none;align=center;fillColor=none;html=1;verticalAlign=middle;whiteSpace=wrap;rounded=0;" vertex="1" parent="1">
          <mxGeometry x="364" y="120" width="56" height="30" as="geometry" />
        </mxCell>
        <mxCell id="h-RIfIJi3bfVFDU83Ssf-21" value="GPL" style="text;strokeColor=none;align=center;fillColor=none;html=1;verticalAlign=middle;whiteSpace=wrap;rounded=0;" vertex="1" parent="1">
          <mxGeometry x="364" y="200" width="56" height="20" as="geometry" />
        </mxCell>
        <mxCell id="h-RIfIJi3bfVFDU83Ssf-23" value="&lt;font style=&quot;font-size: 54px;&quot;&gt;&lt;b&gt;X&lt;/b&gt;&lt;/font&gt;" style="text;strokeColor=none;align=center;fillColor=none;html=1;verticalAlign=middle;whiteSpace=wrap;rounded=0;" vertex="1" parent="1">
          <mxGeometry x="200" y="210" width="80" height="60" as="geometry" />
        </mxCell>
        <mxCell id="h-RIfIJi3bfVFDU83Ssf-26" value="&lt;font style=&quot;font-size: 11px;&quot;&gt;Zero-clause BSD&lt;/font&gt;" style="text;strokeColor=none;align=center;fillColor=none;html=1;verticalAlign=middle;whiteSpace=wrap;rounded=0;" vertex="1" parent="1">
          <mxGeometry x="360" y="250" width="60" height="30" as="geometry" />
        </mxCell>
        <mxCell id="h-RIfIJi3bfVFDU83Ssf-29" value="Oracle JDK" style="text;html=1;align=center;verticalAlign=middle;whiteSpace=wrap;rounded=0;" vertex="1" parent="1">
          <mxGeometry x="280" y="122.5" width="80" height="17.5" as="geometry" />
        </mxCell>
        <mxCell id="h-RIfIJi3bfVFDU83Ssf-30" value="&lt;b&gt;Shared Source&lt;/b&gt;" style="text;html=1;align=center;verticalAlign=middle;whiteSpace=wrap;rounded=0;" vertex="1" parent="1">
          <mxGeometry x="280" y="145" width="80" height="30" as="geometry" />
        </mxCell>
      </root>
    </mxGraphModel>
  </diagram>
</mxfile>
